<svg width="18.005859" height="18.005798" viewBox="0 0 18.0059 18.0058" fill="none" xmlns="http://www.w3.org/2000/svg" xmlns:xlink="http://www.w3.org/1999/xlink">
	<desc>
			Created with Pixso.
	</desc>
	<defs/>
	<path id="Vector" d="M17.7 16.29L14.31 12.9C15.4 11.5 16 9.77 16 8C16 6.41 15.53 4.87 14.65 3.55C13.77 2.23 12.52 1.21 11.06 0.6C9.59 0 7.99 -0.16 6.43 0.15C4.88 0.46 3.46 1.22 2.34 2.34C1.22 3.46 0.46 4.88 0.15 6.43C-0.16 7.99 0 9.59 0.6 11.06C1.21 12.52 2.23 13.77 3.55 14.65C4.87 15.53 6.41 16 8 16C9.77 16 11.5 15.4 12.89 14.31L16.29 17.7C16.38 17.8 16.49 17.87 16.61 17.92C16.73 17.97 16.86 18 17 18C17.13 18 17.26 17.97 17.38 17.92C17.5 17.87 17.61 17.8 17.7 17.7C17.8 17.61 17.87 17.5 17.92 17.38C17.97 17.26 18 17.13 18 17C18 16.86 17.97 16.73 17.92 16.61C17.87 16.49 17.8 16.38 17.7 16.29ZM2 8C2 6.81 2.35 5.65 3.01 4.66C3.67 3.67 4.6 2.91 5.7 2.45C6.8 2 8 1.88 9.17 2.11C10.33 2.34 11.4 2.91 12.24 3.75C13.08 4.59 13.65 5.66 13.88 6.82C14.11 7.99 13.99 9.19 13.54 10.29C13.08 11.39 12.32 12.32 11.33 12.98C10.34 13.64 9.18 14 8 14C6.4 14 4.88 13.36 3.75 12.24C2.63 11.11 2 9.59 2 8Z" fill="#FFFFFF" fill-opacity="1.000000" fill-rule="nonzero"/>
</svg>
